<svg width="56" height="56" viewBox="0 0 56 56" fill="none" xmlns="http://www.w3.org/2000/svg">
<path d="M28 56H42V50.4H28C15.848 50.4 5.6 40.152 5.6 28C5.6 15.848 15.848 5.6 28 5.6C40.152 5.6 50.4 15.848 50.4 28V32.004C50.4 34.216 48.412 36.4 46.2 36.4C43.988 36.4 42 34.216 42 32.004V28C42 20.272 35.728 14 28 14C20.272 14 14 20.272 14 28C14 35.728 20.272 42 28 42C31.864 42 35.392 40.432 37.912 37.884C39.732 40.376 42.868 42 46.2 42C51.716 42 56 37.52 56 32.004V28C56 12.544 43.456 0 28 0C12.544 0 0 12.544 0 28C0 43.456 12.544 56 28 56ZM28 36.4C23.352 36.4 19.6 32.648 19.6 28C19.6 23.352 23.352 19.6 28 19.6C32.648 19.6 36.4 23.352 36.4 28C36.4 32.648 32.648 36.4 28 36.4Z" fill="#354D71"/>
</svg>
