<svg width="55" height="61" viewBox="0 0 55 61" fill="none" xmlns="http://www.w3.org/2000/svg">
<path d="M19.4221 51.974C8.49272 55.7005 10.7416 43.2901 3 44.199M37.6657 58V47.8772C37.7635 46.6299 37.5956 45.3761 37.1732 44.199C36.7508 43.0219 36.0835 41.9485 35.2159 41.0502C43.3994 40.1347 52 37.022 52 22.7402C51.9993 19.0882 50.5996 15.5763 48.0906 12.9313C49.2787 9.73624 49.1947 6.20462 47.8561 3.07008C47.8561 3.07008 44.7807 2.15458 37.6657 6.94133C31.6922 5.31651 25.3956 5.31651 19.4221 6.94133C12.3071 2.15458 9.23172 3.07008 9.23172 3.07008C7.8931 6.20462 7.80909 9.73624 8.99716 12.9313C6.46945 15.5959 5.06832 19.1396 5.08781 22.8187C5.08781 36.9958 13.6884 40.1085 21.8719 41.1287C21.0145 42.0179 20.3532 43.0784 19.9311 44.2412C19.509 45.4039 19.3356 46.6428 19.4221 47.8772V58" stroke="#354D71" stroke-width="5.72308" stroke-linecap="round" stroke-linejoin="round"/>
</svg>
