<svg width="56" height="56" viewBox="0 0 56 56" fill="none" xmlns="http://www.w3.org/2000/svg">
<path fill-rule="evenodd" clip-rule="evenodd" d="M16.3974 0.1674C19.3735 0.0309943 20.3221 0 27.9 0C35.4794 0 36.4265 0.0325415 39.4009 0.1674C42.3722 0.302258 44.4013 0.775011 46.176 1.46475C48.0375 2.16557 49.7236 3.26364 51.1174 4.68256C52.5365 6.07611 53.6347 7.76244 54.3353 9.62395C55.0249 11.3987 55.4961 13.4277 55.6326 16.3974C55.7691 19.3735 55.8 20.3221 55.8 27.9C55.8 35.4779 55.7675 36.4265 55.6326 39.4027C55.4977 42.3722 55.0249 44.4013 54.3353 46.176C53.6223 48.0098 52.6673 49.5674 51.1174 51.1174C49.7239 52.5365 48.0375 53.6347 46.176 54.3353C44.4013 55.0249 42.3722 55.4961 39.4027 55.6326C36.4265 55.7691 35.4779 55.8 27.9 55.8C20.3221 55.8 19.3735 55.7675 16.3974 55.6326C13.4277 55.4977 11.3987 55.0249 9.62395 54.3353C7.79029 53.6223 6.23256 52.6673 4.68256 51.1174C3.26339 49.7239 2.16524 48.0375 1.46475 46.176C0.775011 44.4013 0.303806 42.3722 0.1674 39.4027C0.0309943 36.4265 0 35.4794 0 27.9C0 20.3205 0.0325415 19.3735 0.1674 16.399C0.302258 13.4277 0.775011 11.3987 1.46475 9.62395C2.16557 7.76257 3.26364 6.07632 4.68256 4.68256C6.07609 3.26339 7.76241 2.16524 9.62395 1.46475C11.3987 0.775011 13.4277 0.303806 16.3974 0.1674V0.1674ZM39.1746 5.1894C36.2327 5.05609 35.3493 5.02664 27.9 5.02664C20.4507 5.02664 19.5672 5.05609 16.6253 5.1894C13.9051 5.3134 12.4279 5.76754 11.4452 6.1504C10.1432 6.6557 9.21319 7.26019 8.23669 8.23669C7.26176 9.21319 6.6557 10.1432 6.1504 11.4452C5.76754 12.4279 5.3134 13.9051 5.1894 16.6253C5.05609 19.5672 5.02664 20.4507 5.02664 27.9C5.02664 35.3493 5.05609 36.2327 5.1894 39.1746C5.3134 41.8949 5.76754 43.3721 6.1504 44.3549C6.59736 45.5668 7.31028 46.663 8.23669 47.5634C9.13684 48.4897 10.2332 49.2027 11.4452 49.6496C12.4279 50.0326 13.9051 50.4866 16.6253 50.6106C19.5672 50.744 20.4492 50.7734 27.9 50.7734C35.3508 50.7734 36.2327 50.744 39.1746 50.6106C41.8949 50.4866 43.3721 50.0326 44.3549 49.6496C45.6568 49.1443 46.5869 48.5399 47.5634 47.5634C48.4897 46.6633 49.2027 45.5668 49.6496 44.3549C50.0326 43.3721 50.4866 41.8949 50.6106 39.1746C50.744 36.2327 50.7734 35.3493 50.7734 27.9C50.7734 20.4507 50.744 19.5672 50.6106 16.6253C50.4866 13.9051 50.0326 12.4279 49.6496 11.4452C49.1443 10.1432 48.5399 9.21319 47.5634 8.23669C46.5869 7.26176 45.6568 6.6557 44.3549 6.1504C43.3721 5.76754 41.8949 5.3134 39.1746 5.1894V5.1894ZM24.3377 36.5006C25.4671 36.9685 26.6775 37.2092 27.9 37.2092C30.3691 37.2092 32.7368 36.2284 34.4826 34.4826C36.2287 32.7368 37.2095 30.3689 37.2095 27.9C37.2095 25.4311 36.2287 23.0632 34.4826 21.3173C32.7368 19.5715 30.3691 18.5907 27.9 18.5907C26.6775 18.5907 25.4671 18.8315 24.3377 19.2993C23.208 19.7671 22.1818 20.4529 21.3174 21.3173C20.453 22.1818 19.7672 23.208 19.2994 24.3374C18.8316 25.4669 18.5908 26.6775 18.5908 27.9C18.5908 29.1225 18.8316 30.3331 19.2994 31.4626C19.7672 32.592 20.453 33.6182 21.3174 34.4826C22.1818 35.347 23.208 36.0328 24.3377 36.5006V36.5006ZM17.7597 17.7596C20.4491 15.0703 24.0967 13.5594 27.9 13.5594C31.7035 13.5594 35.3511 15.0703 38.0404 17.7596C40.7297 20.449 42.2406 24.0967 42.2406 27.9C42.2406 31.7033 40.7297 35.3508 38.0404 38.0404C35.3511 40.7297 31.7035 42.2406 27.9 42.2406C24.0967 42.2406 20.4491 40.7297 17.7597 38.0404C15.0704 35.3508 13.5595 31.7033 13.5595 27.9C13.5595 24.0967 15.0704 20.449 17.7597 17.7596V17.7596ZM45.4204 15.696C46.0561 15.0602 46.4132 14.198 46.4132 13.299C46.4132 12.3999 46.0561 11.5377 45.4204 10.902C44.7846 10.2663 43.9225 9.90914 43.0233 9.90914C42.1244 9.90914 41.2621 10.2663 40.6265 10.902C39.9906 11.5377 39.6335 12.3999 39.6335 13.299C39.6335 14.198 39.9906 15.0602 40.6265 15.696C41.2621 16.3317 42.1244 16.6888 43.0233 16.6888C43.9225 16.6888 44.7846 16.3317 45.4204 15.696Z" fill="#354D71"/>
</svg>
