<svg width="150" height="53" viewBox="0 0 150 53" fill="none" xmlns="http://www.w3.org/2000/svg">
<path d="M4.32031 18.7969C4.49219 18.4688 4.65625 18.0312 4.8125 17.4844C4.98438 16.9219 5.14062 16.3047 5.28125 15.6328C5.4375 14.9609 5.57812 14.2578 5.70312 13.5234C5.82812 12.7891 5.9375 12.0703 6.03125 11.3672C6.125 10.6641 6.19531 10.0078 6.24219 9.39844C6.30469 8.77344 6.33594 8.24219 6.33594 7.80469C6.33594 6.21094 6.21875 5.04688 5.98438 4.3125C5.75 3.5625 5.4375 3.1875 5.04688 3.1875C4.92188 3.1875 4.8125 3.25 4.71875 3.375C4.625 3.5 4.54688 3.66406 4.48438 3.86719C4.42188 4.05469 4.375 4.26562 4.34375 4.5C4.32812 4.71875 4.32031 4.92188 4.32031 5.10938V18.7969ZM11.1406 26.0391C11.2344 25.5703 11.375 25.2344 11.5625 25.0312C11.7656 24.8125 11.9766 24.6953 12.1953 24.6797C12.4297 24.6484 12.6641 24.7031 12.8984 24.8438C13.1328 24.9688 13.3359 25.1406 13.5078 25.3594C13.6797 25.5781 13.8047 25.8281 13.8828 26.1094C13.9766 26.375 13.9922 26.6406 13.9297 26.9062C13.7109 27.5469 13.3984 28.2969 12.9922 29.1562C12.5859 30.0156 12.0703 30.8281 11.4453 31.5938C10.8203 32.3594 10.0859 33.0078 9.24219 33.5391C8.39844 34.0703 7.42969 34.3359 6.33594 34.3359C5.41406 34.3359 4.60156 34.1797 3.89844 33.8672C3.19531 33.5703 2.60156 33.1484 2.11719 32.6016C1.64844 32.0391 1.28906 31.375 1.03906 30.6094C0.804688 29.8281 0.6875 28.9609 0.6875 28.0078V6.16406C0.6875 5.27344 0.796875 4.45312 1.01562 3.70312C1.25 2.9375 1.5625 2.28906 1.95312 1.75781C2.35938 1.21094 2.82812 0.789062 3.35938 0.492188C3.89062 0.179688 4.45312 0.0234375 5.04688 0.0234375C5.75 0.0234375 6.34375 0.15625 6.82812 0.421875C7.3125 0.671875 7.71094 1.00781 8.02344 1.42969C8.33594 1.85156 8.57812 2.33594 8.75 2.88281C8.9375 3.42969 9.07031 3.99219 9.14844 4.57031C9.22656 5.13281 9.27344 5.69531 9.28906 6.25781C9.30469 6.80469 9.3125 7.30469 9.3125 7.75781C9.3125 8.92969 9.20312 10.1641 8.98438 11.4609C8.76562 12.7422 8.48438 14.0078 8.14062 15.2578C7.8125 16.5078 7.44531 17.7109 7.03906 18.8672C6.64844 20.0078 6.26562 21.0234 5.89062 21.9141C5.53125 22.8047 5.20312 23.5312 4.90625 24.0938C4.625 24.6562 4.42969 24.9844 4.32031 25.0781V27.8672C4.32031 28.8359 4.52344 29.6328 4.92969 30.2578C5.33594 30.8672 5.98438 31.1719 6.875 31.1719C7.42188 31.1719 7.92969 31.0078 8.39844 30.6797C8.88281 30.3359 9.30469 29.9141 9.66406 29.4141C10.0391 28.8984 10.3516 28.3438 10.6016 27.75C10.8516 27.1406 11.0312 26.5703 11.1406 26.0391Z" fill="#F98B0A"/>
<path d="M21.4925 9.91406C21.1019 9.91406 20.7269 9.83594 20.3675 9.67969C20.0238 9.52344 19.7191 9.3125 19.4534 9.04688C19.2034 8.78125 19.0003 8.47656 18.8441 8.13281C18.6878 7.77344 18.6097 7.39062 18.6097 6.98438C18.6097 6.5625 18.6878 6.17188 18.8441 5.8125C19.0003 5.45312 19.2034 5.14844 19.4534 4.89844C19.7191 4.63281 20.0238 4.42969 20.3675 4.28906C20.7269 4.13281 21.1019 4.05469 21.4925 4.05469C21.9144 4.05469 22.305 4.13281 22.6644 4.28906C23.0238 4.42969 23.3284 4.63281 23.5784 4.89844C23.8441 5.14844 24.0472 5.45312 24.1878 5.8125C24.3441 6.17188 24.4222 6.5625 24.4222 6.98438C24.4222 7.39062 24.3441 7.77344 24.1878 8.13281C24.0472 8.47656 23.8441 8.78125 23.5784 9.04688C23.3284 9.3125 23.0238 9.52344 22.6644 9.67969C22.305 9.83594 21.9144 9.91406 21.4925 9.91406ZM22.5941 28.9688C22.5941 29.0781 22.6019 29.2578 22.6175 29.5078C22.6331 29.7422 22.68 29.9844 22.7581 30.2344C22.8363 30.4844 22.9613 30.7031 23.1331 30.8906C23.305 31.0781 23.5472 31.1719 23.8597 31.1719C24.3284 31.1719 24.7347 31 25.0784 30.6562C25.4378 30.3125 25.7425 29.8828 25.9925 29.3672C26.2581 28.8516 26.4769 28.2969 26.6488 27.7031C26.8206 27.0938 26.9613 26.5234 27.0706 25.9922C27.1644 25.5078 27.305 25.1562 27.4925 24.9375C27.6956 24.7188 27.9066 24.6016 28.1253 24.5859C28.3597 24.5547 28.5863 24.6094 28.805 24.75C29.0394 24.8906 29.2425 25.0781 29.4144 25.3125C29.6019 25.5312 29.7347 25.7812 29.8128 26.0625C29.9066 26.3438 29.9222 26.6094 29.8597 26.8594C29.6409 27.6562 29.3519 28.4922 28.9925 29.3672C28.6488 30.2422 28.2034 31.0469 27.6566 31.7812C27.1097 32.5156 26.4534 33.125 25.6878 33.6094C24.9222 34.0938 24.0238 34.3359 22.9925 34.3359C22.3519 34.3359 21.7816 34.2109 21.2816 33.9609C20.7816 33.7266 20.3597 33.4062 20.0159 33C19.6722 32.5938 19.4066 32.1172 19.2191 31.5703C19.0472 31.0234 18.9613 30.4453 18.9613 29.8359V17.0156C18.9613 16.5625 18.9222 16.2344 18.8441 16.0312C18.7816 15.8281 18.7503 15.6406 18.7503 15.4688C18.7503 15.2344 18.8753 15.0469 19.1253 14.9062C19.3753 14.75 19.6722 14.6719 20.0159 14.6719C20.8128 14.6719 21.4378 14.8828 21.8909 15.3047C22.3597 15.7109 22.5941 16.2031 22.5941 16.7812V28.9688Z" fill="#F98B0A"/>
<path d="M40.1647 20.7656C40.1647 19.7969 40.2663 18.9609 40.4694 18.2578C40.6881 17.5391 40.985 16.9531 41.36 16.5C41.735 16.0312 42.1647 15.6875 42.6491 15.4688C43.1491 15.25 43.6803 15.1406 44.2428 15.1406C44.8834 15.1406 45.5084 15.2969 46.1178 15.6094C46.7272 15.9219 47.2663 16.3984 47.735 17.0391C48.2194 17.6797 48.6022 18.4922 48.8834 19.4766C49.1803 20.4609 49.3288 21.625 49.3288 22.9688C49.3288 23.9062 49.2663 24.8438 49.1413 25.7812C49.0319 26.7031 48.8522 27.5859 48.6022 28.4297C48.7741 28.4922 48.9381 28.5312 49.0944 28.5469C49.2663 28.5469 49.4381 28.5469 49.61 28.5469C50.1256 28.5469 50.5788 28.4531 50.9694 28.2656C51.3756 28.0781 51.7194 27.8281 52.0006 27.5156C52.2975 27.2031 52.5319 26.8359 52.7038 26.4141C52.8756 25.9922 53.0006 25.5469 53.0788 25.0781C53.11 24.8906 53.2116 24.7344 53.3834 24.6094C53.5709 24.4844 53.7819 24.3984 54.0163 24.3516C54.2506 24.3047 54.4928 24.3047 54.7428 24.3516C55.0084 24.3984 55.235 24.5078 55.4225 24.6797C55.61 24.8359 55.7428 25.0625 55.8209 25.3594C55.9147 25.6406 55.9147 26.0078 55.8209 26.4609C55.6803 27.1172 55.4459 27.7344 55.1178 28.3125C54.8053 28.875 54.4069 29.375 53.9225 29.8125C53.4381 30.25 52.8678 30.5938 52.2116 30.8438C51.5553 31.0938 50.8209 31.2188 50.0084 31.2188C49.5709 31.2188 49.1491 31.1953 48.7428 31.1484C48.3366 31.1016 47.9381 31.0156 47.5475 30.8906C46.9538 31.9219 46.1803 32.75 45.2272 33.375C44.2741 34.0156 43.0944 34.3359 41.6881 34.3359C40.5788 34.3359 39.6022 34.1406 38.7584 33.75C37.9303 33.3594 37.2272 32.8125 36.6491 32.1094C36.0866 31.3906 35.6569 30.5391 35.36 29.5547C35.0788 28.5703 34.9381 27.4922 34.9381 26.3203V3.42188C34.9381 3.07812 34.9069 2.80469 34.8444 2.60156C34.7975 2.39844 34.7428 2.24219 34.6803 2.13281C34.6334 2.00781 34.5788 1.91406 34.5163 1.85156C34.4694 1.77344 34.4459 1.69531 34.4459 1.61719C34.4459 1.52344 34.4928 1.44531 34.5866 1.38281C34.6803 1.32031 34.8053 1.26562 34.9616 1.21875C35.1178 1.17188 35.2819 1.14062 35.4538 1.125C35.6413 1.09375 35.8209 1.07812 35.9928 1.07812C36.7897 1.07812 37.4147 1.28906 37.8678 1.71094C38.3366 2.11719 38.5709 2.60938 38.5709 3.1875V25.6641C38.5709 26.4609 38.6413 27.1953 38.7819 27.8672C38.9225 28.5391 39.1334 29.125 39.4147 29.625C39.6959 30.1094 40.0475 30.4922 40.4694 30.7734C40.9069 31.0391 41.4147 31.1719 41.9928 31.1719C42.5866 31.1719 43.0944 31.0234 43.5163 30.7266C43.9381 30.4141 44.2897 30 44.5709 29.4844C43.8834 29 43.2663 28.4375 42.7194 27.7969C42.1881 27.1406 41.7272 26.4375 41.3366 25.6875C40.9616 24.9219 40.6725 24.125 40.4694 23.2969C40.2663 22.4531 40.1647 21.6094 40.1647 20.7656ZM43.1413 20.5781C43.1413 21.7344 43.3444 22.8281 43.7506 23.8594C44.1725 24.8906 44.735 25.7812 45.4381 26.5312C45.5319 25.9688 45.5944 25.4141 45.6256 24.8672C45.6569 24.3047 45.6725 23.7969 45.6725 23.3438C45.6725 21.7344 45.5006 20.4922 45.1569 19.6172C44.8288 18.7422 44.4459 18.3047 44.0084 18.3047C43.6959 18.3047 43.4694 18.5156 43.3288 18.9375C43.2038 19.3438 43.1413 19.8906 43.1413 20.5781Z" fill="#F98B0A"/>
<path d="M71.2119 34.3359C70.6494 34.3359 70.0713 34.25 69.4775 34.0781C68.8994 33.9062 68.3681 33.6094 67.8838 33.1875C67.415 32.7656 67.0244 32.2109 66.7119 31.5234C66.415 30.8203 66.2666 29.9375 66.2666 28.875C66.2666 27.3281 66.4697 25.6953 66.8759 23.9766C67.2978 22.2422 67.8994 20.3359 68.6806 18.2578H65.0244H64.4853C64.4697 18.7266 64.4384 19.3203 64.3916 20.0391C64.3603 20.7578 64.2978 21.5234 64.2041 22.3359C64.1103 23.1484 63.9853 23.9688 63.8291 24.7969C63.6884 25.625 63.5088 26.3906 63.29 27.0938C63.1338 27.5938 62.8838 27.8828 62.54 27.9609C62.2119 28.0391 61.8838 27.9844 61.5556 27.7969C61.2275 27.5938 60.9619 27.3047 60.7588 26.9297C60.5556 26.5547 60.5088 26.1641 60.6181 25.7578C60.7431 25.2734 60.8525 24.6875 60.9463 24C61.04 23.2969 61.1103 22.5625 61.1572 21.7969C61.2197 21.0156 61.2666 20.2422 61.2978 19.4766C61.3291 18.6953 61.3525 18 61.3681 17.3906C60.7744 17.0625 60.2822 16.6484 59.8916 16.1484C59.5009 15.6328 59.3056 15.0234 59.3056 14.3203C59.3056 13.9922 59.3681 13.6953 59.4931 13.4297C59.6338 13.1484 59.8134 12.9141 60.0322 12.7266C60.2509 12.5234 60.5088 12.375 60.8056 12.2812C61.1025 12.1719 61.4072 12.1172 61.7197 12.1172C62.0009 12.1172 62.29 12.1562 62.5869 12.2344C62.8994 12.3125 63.1884 12.4531 63.4541 12.6562C63.7353 12.8594 63.9853 13.125 64.2041 13.4531C64.4228 13.7812 64.6025 14.1875 64.7431 14.6719C65.1338 14.7188 65.4619 14.7578 65.7275 14.7891C66.0088 14.8047 66.2431 14.8203 66.4306 14.8359C66.6181 14.8516 66.7744 14.8594 66.8994 14.8594C67.0244 14.8594 67.1494 14.8594 67.2744 14.8594H69.7822C69.9228 14.8594 70.1259 14.9453 70.3916 15.1172C70.6728 15.2891 70.9463 15.5156 71.2119 15.7969C71.4775 16.0625 71.6963 16.3516 71.8681 16.6641C72.0556 16.9766 72.1259 17.2734 72.0791 17.5547C72.0791 17.6484 72.0244 17.875 71.915 18.2344C71.8056 18.5938 71.6728 19.0469 71.5166 19.5938C71.3603 20.1406 71.1884 20.7734 71.0009 21.4922C70.8134 22.1953 70.6416 22.9375 70.4853 23.7188C70.3291 24.5 70.1963 25.3125 70.0869 26.1562C69.9775 26.9844 69.9228 27.7969 69.9228 28.5938C69.9228 28.9219 69.9619 29.2422 70.04 29.5547C70.1181 29.8672 70.2353 30.1484 70.3916 30.3984C70.5478 30.6328 70.7431 30.8203 70.9775 30.9609C71.2275 31.1016 71.5166 31.1719 71.8447 31.1719C72.3916 31.1719 72.8603 31 73.2509 30.6562C73.6416 30.3125 73.9697 29.8828 74.2353 29.3672C74.5009 28.8516 74.7119 28.2969 74.8681 27.7031C75.04 27.0938 75.1806 26.5234 75.29 25.9922C75.3838 25.4922 75.54 25.1328 75.7588 24.9141C75.9775 24.6797 76.2041 24.5625 76.4384 24.5625C76.6259 24.5625 76.8213 24.625 77.0244 24.75C77.2275 24.8594 77.4072 25.0078 77.5634 25.1953C77.7353 25.3828 77.8681 25.5938 77.9619 25.8281C78.0713 26.0625 78.1259 26.2969 78.1259 26.5312C78.1259 26.6094 78.1181 26.6719 78.1025 26.7188C78.0869 26.7656 78.0791 26.8125 78.0791 26.8594C77.8603 27.6562 77.5713 28.4922 77.2119 29.3672C76.8681 30.2422 76.4228 31.0469 75.8759 31.7812C75.3291 32.5156 74.6728 33.125 73.9072 33.6094C73.1416 34.0938 72.2431 34.3359 71.2119 34.3359Z" fill="#F98B0A"/>
<path d="M94.2434 19.0312C94.2434 19.9219 94.0872 20.8359 93.7747 21.7734C93.4778 22.7109 93.0247 23.6016 92.4153 24.4453C91.8216 25.2734 91.0794 26.0234 90.1888 26.6953C89.3138 27.3516 88.2981 27.8516 87.1419 28.1953C87.2981 28.6016 87.5013 28.9922 87.7513 29.3672C88.0169 29.7266 88.3294 30.0391 88.6888 30.3047C89.0481 30.5703 89.4622 30.7812 89.9309 30.9375C90.4153 31.0938 90.97 31.1719 91.595 31.1719C92.5325 31.1719 93.3372 31 94.0091 30.6562C94.6809 30.2969 95.2434 29.8281 95.6966 29.25C96.1653 28.6719 96.5403 28.0234 96.8216 27.3047C97.1028 26.5859 97.3138 25.8594 97.4544 25.125C97.5638 24.5938 97.7825 24.2422 98.1106 24.0703C98.4544 23.8828 98.7981 23.8359 99.1419 23.9297C99.5013 24.0234 99.8059 24.2266 100.056 24.5391C100.322 24.8359 100.431 25.1953 100.384 25.6172C100.322 26.1016 100.212 26.6562 100.056 27.2812C99.9153 27.9062 99.6966 28.5391 99.3997 29.1797C99.1028 29.8203 98.72 30.4531 98.2513 31.0781C97.7981 31.6875 97.2356 32.2344 96.5638 32.7188C95.8919 33.2031 95.1028 33.5938 94.1966 33.8906C93.2903 34.1875 92.2513 34.3359 91.0794 34.3359C89.9856 34.3359 88.9231 34.1172 87.8919 33.6797C86.8763 33.2578 85.97 32.6484 85.1731 31.8516C84.3919 31.0391 83.7591 30.0469 83.2747 28.875C82.8059 27.6875 82.5716 26.3438 82.5716 24.8438C82.5716 23.3281 82.7825 21.9219 83.2044 20.625C83.6263 19.3125 84.1809 18.1797 84.8684 17.2266C85.5559 16.2734 86.3372 15.5312 87.2122 15C88.0872 14.4531 88.9856 14.1797 89.9075 14.1797C90.5794 14.1797 91.1809 14.2969 91.7122 14.5312C92.2591 14.7656 92.72 15.1016 93.095 15.5391C93.47 15.9609 93.7513 16.4688 93.9388 17.0625C94.1419 17.6562 94.2434 18.3125 94.2434 19.0312ZM86.5091 24.7031C86.5091 24.8438 86.5169 24.9844 86.5325 25.125C86.5481 25.2656 86.5559 25.4141 86.5559 25.5703C87.1497 25.2891 87.6888 24.9297 88.1731 24.4922C88.6575 24.0547 89.0716 23.5547 89.4153 22.9922C89.7591 22.4297 90.0247 21.8203 90.2122 21.1641C90.3997 20.4922 90.4934 19.7969 90.4934 19.0781C90.4934 18.5469 90.3997 18.1328 90.2122 17.8359C90.0403 17.5391 89.7981 17.3906 89.4856 17.3906C89.095 17.3906 88.7434 17.5234 88.4309 17.7891C88.1341 18.0547 87.8684 18.4062 87.6341 18.8438C87.4153 19.2656 87.2278 19.75 87.0716 20.2969C86.9309 20.8281 86.8138 21.3672 86.72 21.9141C86.6263 22.4609 86.5638 22.9844 86.5325 23.4844C86.5013 23.9688 86.4934 24.375 86.5091 24.7031Z" fill="#F98B0A"/>
<path d="M108.017 47.25C108.017 46.0312 108.173 44.9531 108.486 44.0156C108.814 43.0781 109.252 42.2188 109.798 41.4375C110.345 40.6562 110.978 39.9219 111.697 39.2344C112.416 38.5625 113.173 37.875 113.97 37.1719V32.1328C113.486 32.6172 112.916 33.0234 112.259 33.3516C111.619 33.6953 110.877 33.8672 110.033 33.8672C109.095 33.8672 108.267 33.6797 107.548 33.3047C106.845 32.9297 106.252 32.4219 105.767 31.7812C105.283 31.125 104.916 30.3594 104.666 29.4844C104.431 28.5938 104.314 27.6406 104.314 26.625C104.314 24.625 104.634 22.8281 105.275 21.2344C105.916 19.6406 106.767 18.2891 107.83 17.1797C108.892 16.0547 110.103 15.1953 111.463 14.6016C112.838 14.0078 114.259 13.7109 115.728 13.7109C116.384 13.7109 116.916 13.8906 117.322 14.25C117.728 14.5938 117.931 15.0859 117.931 15.7266C117.931 16.1328 117.884 16.4219 117.791 16.5938C117.713 16.75 117.556 16.8281 117.322 16.8281C117.103 16.8281 116.877 16.8125 116.642 16.7812C116.408 16.75 116.166 16.7344 115.916 16.7344C115.009 16.7344 114.088 16.9375 113.15 17.3438C112.213 17.7344 111.361 18.3438 110.595 19.1719C109.845 19.9844 109.228 21.0234 108.744 22.2891C108.259 23.5391 108.017 25.0312 108.017 26.7656C108.017 28.0156 108.259 28.9844 108.744 29.6719C109.228 30.3594 109.892 30.7031 110.736 30.7031C111.22 30.7031 111.642 30.5625 112.002 30.2812C112.361 29.9844 112.673 29.6172 112.939 29.1797C113.205 28.7422 113.416 28.2656 113.572 27.75C113.744 27.2188 113.877 26.7109 113.97 26.2266V20.8125C113.97 20.3594 113.931 20.0312 113.853 19.8281C113.791 19.625 113.759 19.4375 113.759 19.2656C113.759 19.0312 113.884 18.8359 114.134 18.6797C114.384 18.5234 114.681 18.4453 115.025 18.4453C115.822 18.4453 116.447 18.6562 116.9 19.0781C117.369 19.4844 117.603 19.9844 117.603 20.5781V33.6328C118.478 32.6641 119.275 31.5625 119.994 30.3281C120.728 29.0938 121.338 27.6484 121.822 25.9922C121.978 25.4922 122.15 25.1328 122.338 24.9141C122.525 24.6797 122.744 24.5625 122.994 24.5625C123.181 24.5625 123.369 24.625 123.556 24.75C123.759 24.8594 123.939 25.0078 124.095 25.1953C124.267 25.3828 124.4 25.5938 124.494 25.8281C124.603 26.0625 124.658 26.2969 124.658 26.5312C124.658 26.5625 124.658 26.625 124.658 26.7188C124.658 26.8125 124.642 26.9062 124.611 27C124.205 28.3906 123.728 29.625 123.181 30.7031C122.65 31.7656 122.08 32.7188 121.47 33.5625C120.861 34.4062 120.228 35.1562 119.572 35.8125C118.916 36.4844 118.259 37.1016 117.603 37.6641V45.9609C117.603 47.2266 117.455 48.2891 117.158 49.1484C116.877 50.0234 116.502 50.7266 116.033 51.2578C115.564 51.8047 115.025 52.1953 114.416 52.4297C113.822 52.6641 113.22 52.7812 112.611 52.7812C111.939 52.7812 111.322 52.6328 110.759 52.3359C110.197 52.0547 109.713 51.6641 109.306 51.1641C108.9 50.6641 108.58 50.0781 108.345 49.4062C108.127 48.7344 108.017 48.0156 108.017 47.25ZM112.611 49.7578C113.002 49.7578 113.291 49.6016 113.478 49.2891C113.666 48.9766 113.791 48.6094 113.853 48.1875C113.931 47.7812 113.97 47.3672 113.97 46.9453C113.97 46.5234 113.97 46.1953 113.97 45.9609V40.8281C113.189 41.6094 112.556 42.4922 112.072 43.4766C111.603 44.4609 111.369 45.6719 111.369 47.1094C111.369 47.8594 111.478 48.4844 111.697 48.9844C111.916 49.5 112.22 49.7578 112.611 49.7578Z" fill="#F98B0A"/>
<path d="M135.103 34.3359C134.166 34.3359 133.314 34.1719 132.549 33.8438C131.783 33.5156 131.127 33.0312 130.58 32.3906C130.049 31.7344 129.635 30.9297 129.338 29.9766C129.057 29.0078 128.916 27.8906 128.916 26.625C128.916 24.7812 129.174 23.1406 129.689 21.7031C130.205 20.25 130.908 19.0078 131.799 17.9766C132.689 16.9297 133.721 16.1016 134.893 15.4922C136.064 14.8672 137.307 14.4609 138.619 14.2734V3.42188C138.619 3.07812 138.588 2.80469 138.525 2.60156C138.478 2.39844 138.424 2.24219 138.361 2.13281C138.314 2.00781 138.26 1.91406 138.197 1.85156C138.15 1.77344 138.127 1.69531 138.127 1.61719C138.127 1.52344 138.174 1.44531 138.268 1.38281C138.361 1.32031 138.486 1.26562 138.643 1.21875C138.799 1.17188 138.963 1.14062 139.135 1.125C139.322 1.09375 139.502 1.07812 139.674 1.07812C140.471 1.07812 141.096 1.28906 141.549 1.71094C142.018 2.11719 142.252 2.60938 142.252 3.1875V28.9688C142.252 29.2344 142.283 29.5 142.346 29.7656C142.408 30.0156 142.502 30.25 142.627 30.4688C142.768 30.6719 142.939 30.8438 143.143 30.9844C143.361 31.1094 143.611 31.1719 143.893 31.1719C144.377 31.1719 144.791 31 145.135 30.6562C145.494 30.3125 145.799 29.8828 146.049 29.3672C146.314 28.8516 146.525 28.2969 146.682 27.7031C146.853 27.0938 146.994 26.5234 147.103 25.9922C147.197 25.4922 147.353 25.1328 147.572 24.9141C147.791 24.6797 148.018 24.5625 148.252 24.5625C148.439 24.5625 148.635 24.625 148.838 24.75C149.041 24.8594 149.221 25.0078 149.377 25.1953C149.549 25.3828 149.682 25.5938 149.775 25.8281C149.885 26.0625 149.939 26.2969 149.939 26.5312C149.939 26.5625 149.939 26.6016 149.939 26.6484C149.939 26.6953 149.924 26.7656 149.893 26.8594C149.689 27.6562 149.408 28.4922 149.049 29.3672C148.705 30.2422 148.252 31.0469 147.689 31.7812C147.143 32.5156 146.486 33.125 145.721 33.6094C144.955 34.0938 144.057 34.3359 143.025 34.3359C142.197 34.3359 141.471 34.1641 140.846 33.8203C140.221 33.4766 139.728 33.0234 139.369 32.4609C138.838 33.0078 138.221 33.4531 137.518 33.7969C136.83 34.1562 136.025 34.3359 135.103 34.3359ZM135.83 31.1719C136.455 31.1719 136.994 30.9922 137.447 30.6328C137.916 30.2734 138.307 29.8281 138.619 29.2969V17.4375C137.838 17.5781 137.08 17.8438 136.346 18.2344C135.627 18.6094 134.986 19.1406 134.424 19.8281C133.877 20.5156 133.439 21.3906 133.111 22.4531C132.783 23.5 132.619 24.7734 132.619 26.2734C132.619 27.1484 132.705 27.8984 132.877 28.5234C133.064 29.1328 133.299 29.6328 133.58 30.0234C133.877 30.4141 134.221 30.7031 134.611 30.8906C135.002 31.0781 135.408 31.1719 135.83 31.1719Z" fill="#F98B0A"/>
</svg>
